<?xml version="1.0" encoding="utf-8" standalone="no"?>
<!DOCTYPE svg PUBLIC "-//W3C//DTD SVG 1.1//EN"
  "http://www.w3.org/Graphics/SVG/1.1/DTD/svg11.dtd">
<!-- Created with matplotlib (http://matplotlib.org/) -->
<svg height="288pt" version="1.1" viewBox="0 0 576 288" width="576pt" xmlns="http://www.w3.org/2000/svg" xmlns:xlink="http://www.w3.org/1999/xlink">
 <defs>
  <style type="text/css">
*{stroke-linecap:butt;stroke-linejoin:round;}
  </style>
 </defs>
 <g id="figure_1">
  <g id="patch_1">
   <path d="M 0 288 
L 576 288 
L 576 0 
L 0 0 
z
" style="fill:#ffffff;"/>
  </g>
  <g id="axes_1">
   <g id="patch_2">
    <path d="M 52.8 246.2 
L 550.465898 246.2 
L 550.465898 26.8 
L 52.8 26.8 
z
" style="fill:#ffffff;"/>
   </g>
   <g id="matplotlib.axis_1">
    <g id="xtick_1">
     <g id="line2d_1">
      <path clip-path="url(#p06783aeb6c)" d="M 61.780266 246.2 
L 61.780266 26.8 
" style="fill:none;stroke:#b0b0b0;stroke-linecap:square;stroke-width:0.8;"/>
     </g>
     <g id="line2d_2">
      <defs>
       <path d="M 0 0 
L 0 3.5 
" id="ma4dfbf575c" style="stroke:#000000;stroke-width:0.8;"/>
      </defs>
      <g>
       <use style="stroke:#000000;stroke-width:0.8;" x="61.780266" xlink:href="#ma4dfbf575c" y="246.2"/>
      </g>
     </g>
     <g id="text_1">
      <!-- 2017-11 -->
      <defs>
       <path d="M 19.1875 8.296875 
L 53.609375 8.296875 
L 53.609375 0 
L 7.328125 0 
L 7.328125 8.296875 
Q 12.9375 14.109375 22.625 23.890625 
Q 32.328125 33.6875 34.8125 36.53125 
Q 39.546875 41.84375 41.421875 45.53125 
Q 43.3125 49.21875 43.3125 52.78125 
Q 43.3125 58.59375 39.234375 62.25 
Q 35.15625 65.921875 28.609375 65.921875 
Q 23.96875 65.921875 18.8125 64.3125 
Q 13.671875 62.703125 7.8125 59.421875 
L 7.8125 69.390625 
Q 13.765625 71.78125 18.9375 73 
Q 24.125 74.21875 28.421875 74.21875 
Q 39.75 74.21875 46.484375 68.546875 
Q 53.21875 62.890625 53.21875 53.421875 
Q 53.21875 48.921875 51.53125 44.890625 
Q 49.859375 40.875 45.40625 35.40625 
Q 44.1875 33.984375 37.640625 27.21875 
Q 31.109375 20.453125 19.1875 8.296875 
z
" id="DejaVuSans-32"/>
       <path d="M 31.78125 66.40625 
Q 24.171875 66.40625 20.328125 58.90625 
Q 16.5 51.421875 16.5 36.375 
Q 16.5 21.390625 20.328125 13.890625 
Q 24.171875 6.390625 31.78125 6.390625 
Q 39.453125 6.390625 43.28125 13.890625 
Q 47.125 21.390625 47.125 36.375 
Q 47.125 51.421875 43.28125 58.90625 
Q 39.453125 66.40625 31.78125 66.40625 
z
M 31.78125 74.21875 
Q 44.046875 74.21875 50.515625 64.515625 
Q 56.984375 54.828125 56.984375 36.375 
Q 56.984375 17.96875 50.515625 8.265625 
Q 44.046875 -1.421875 31.78125 -1.421875 
Q 19.53125 -1.421875 13.0625 8.265625 
Q 6.59375 17.96875 6.59375 36.375 
Q 6.59375 54.828125 13.0625 64.515625 
Q 19.53125 74.21875 31.78125 74.21875 
z
" id="DejaVuSans-30"/>
       <path d="M 12.40625 8.296875 
L 28.515625 8.296875 
L 28.515625 63.921875 
L 10.984375 60.40625 
L 10.984375 69.390625 
L 28.421875 72.90625 
L 38.28125 72.90625 
L 38.28125 8.296875 
L 54.390625 8.296875 
L 54.390625 0 
L 12.40625 0 
z
" id="DejaVuSans-31"/>
       <path d="M 8.203125 72.90625 
L 55.078125 72.90625 
L 55.078125 68.703125 
L 28.609375 0 
L 18.3125 0 
L 43.21875 64.59375 
L 8.203125 64.59375 
z
" id="DejaVuSans-37"/>
       <path d="M 4.890625 31.390625 
L 31.203125 31.390625 
L 31.203125 23.390625 
L 4.890625 23.390625 
z
" id="DejaVuSans-2d"/>
      </defs>
      <g transform="translate(40.88886 260.798437)scale(0.1 -0.1)">
       <use xlink:href="#DejaVuSans-32"/>
       <use x="63.623047" xlink:href="#DejaVuSans-30"/>
       <use x="127.246094" xlink:href="#DejaVuSans-31"/>
       <use x="190.869141" xlink:href="#DejaVuSans-37"/>
       <use x="254.492188" xlink:href="#DejaVuSans-2d"/>
       <use x="290.576172" xlink:href="#DejaVuSans-31"/>
       <use x="354.199219" xlink:href="#DejaVuSans-31"/>
      </g>
     </g>
    </g>
    <g id="xtick_2">
     <g id="line2d_3">
      <path clip-path="url(#p06783aeb6c)" d="M 129.984821 246.2 
L 129.984821 26.8 
" style="fill:none;stroke:#b0b0b0;stroke-linecap:square;stroke-width:0.8;"/>
     </g>
     <g id="line2d_4">
      <g>
       <use style="stroke:#000000;stroke-width:0.8;" x="129.984821" xlink:href="#ma4dfbf575c" y="246.2"/>
      </g>
     </g>
     <g id="text_2">
      <!-- 2017-12 -->
      <g transform="translate(109.093414 260.798437)scale(0.1 -0.1)">
       <use xlink:href="#DejaVuSans-32"/>
       <use x="63.623047" xlink:href="#DejaVuSans-30"/>
       <use x="127.246094" xlink:href="#DejaVuSans-31"/>
       <use x="190.869141" xlink:href="#DejaVuSans-37"/>
       <use x="254.492188" xlink:href="#DejaVuSans-2d"/>
       <use x="290.576172" xlink:href="#DejaVuSans-31"/>
       <use x="354.199219" xlink:href="#DejaVuSans-32"/>
      </g>
     </g>
    </g>
    <g id="xtick_3">
     <g id="line2d_5">
      <path clip-path="url(#p06783aeb6c)" d="M 200.46286 246.2 
L 200.46286 26.8 
" style="fill:none;stroke:#b0b0b0;stroke-linecap:square;stroke-width:0.8;"/>
     </g>
     <g id="line2d_6">
      <g>
       <use style="stroke:#000000;stroke-width:0.8;" x="200.46286" xlink:href="#ma4dfbf575c" y="246.2"/>
      </g>
     </g>
     <g id="text_3">
      <!-- 2018-01 -->
      <defs>
       <path d="M 31.78125 34.625 
Q 24.75 34.625 20.71875 30.859375 
Q 16.703125 27.09375 16.703125 20.515625 
Q 16.703125 13.921875 20.71875 10.15625 
Q 24.75 6.390625 31.78125 6.390625 
Q 38.8125 6.390625 42.859375 10.171875 
Q 46.921875 13.96875 46.921875 20.515625 
Q 46.921875 27.09375 42.890625 30.859375 
Q 38.875 34.625 31.78125 34.625 
z
M 21.921875 38.8125 
Q 15.578125 40.375 12.03125 44.71875 
Q 8.5 49.078125 8.5 55.328125 
Q 8.5 64.0625 14.71875 69.140625 
Q 20.953125 74.21875 31.78125 74.21875 
Q 42.671875 74.21875 48.875 69.140625 
Q 55.078125 64.0625 55.078125 55.328125 
Q 55.078125 49.078125 51.53125 44.71875 
Q 48 40.375 41.703125 38.8125 
Q 48.828125 37.15625 52.796875 32.3125 
Q 56.78125 27.484375 56.78125 20.515625 
Q 56.78125 9.90625 50.3125 4.234375 
Q 43.84375 -1.421875 31.78125 -1.421875 
Q 19.734375 -1.421875 13.25 4.234375 
Q 6.78125 9.90625 6.78125 20.515625 
Q 6.78125 27.484375 10.78125 32.3125 
Q 14.796875 37.15625 21.921875 38.8125 
z
M 18.3125 54.390625 
Q 18.3125 48.734375 21.84375 45.5625 
Q 25.390625 42.390625 31.78125 42.390625 
Q 38.140625 42.390625 41.71875 45.5625 
Q 45.3125 48.734375 45.3125 54.390625 
Q 45.3125 60.0625 41.71875 63.234375 
Q 38.140625 66.40625 31.78125 66.40625 
Q 25.390625 66.40625 21.84375 63.234375 
Q 18.3125 60.0625 18.3125 54.390625 
z
" id="DejaVuSans-38"/>
      </defs>
      <g transform="translate(179.571454 260.798437)scale(0.1 -0.1)">
       <use xlink:href="#DejaVuSans-32"/>
       <use x="63.623047" xlink:href="#DejaVuSans-30"/>
       <use x="127.246094" xlink:href="#DejaVuSans-31"/>
       <use x="190.869141" xlink:href="#DejaVuSans-38"/>
       <use x="254.492188" xlink:href="#DejaVuSans-2d"/>
       <use x="290.576172" xlink:href="#DejaVuSans-30"/>
       <use x="354.199219" xlink:href="#DejaVuSans-31"/>
      </g>
     </g>
    </g>
    <g id="xtick_4">
     <g id="line2d_7">
      <path clip-path="url(#p06783aeb6c)" d="M 270.940899 246.2 
L 270.940899 26.8 
" style="fill:none;stroke:#b0b0b0;stroke-linecap:square;stroke-width:0.8;"/>
     </g>
     <g id="line2d_8">
      <g>
       <use style="stroke:#000000;stroke-width:0.8;" x="270.940899" xlink:href="#ma4dfbf575c" y="246.2"/>
      </g>
     </g>
     <g id="text_4">
      <!-- 2018-02 -->
      <g transform="translate(250.049493 260.798437)scale(0.1 -0.1)">
       <use xlink:href="#DejaVuSans-32"/>
       <use x="63.623047" xlink:href="#DejaVuSans-30"/>
       <use x="127.246094" xlink:href="#DejaVuSans-31"/>
       <use x="190.869141" xlink:href="#DejaVuSans-38"/>
       <use x="254.492188" xlink:href="#DejaVuSans-2d"/>
       <use x="290.576172" xlink:href="#DejaVuSans-30"/>
       <use x="354.199219" xlink:href="#DejaVuSans-32"/>
      </g>
     </g>
    </g>
    <g id="xtick_5">
     <g id="line2d_9">
      <path clip-path="url(#p06783aeb6c)" d="M 334.598483 246.2 
L 334.598483 26.8 
" style="fill:none;stroke:#b0b0b0;stroke-linecap:square;stroke-width:0.8;"/>
     </g>
     <g id="line2d_10">
      <g>
       <use style="stroke:#000000;stroke-width:0.8;" x="334.598483" xlink:href="#ma4dfbf575c" y="246.2"/>
      </g>
     </g>
     <g id="text_5">
      <!-- 2018-03 -->
      <defs>
       <path d="M 40.578125 39.3125 
Q 47.65625 37.796875 51.625 33 
Q 55.609375 28.21875 55.609375 21.1875 
Q 55.609375 10.40625 48.1875 4.484375 
Q 40.765625 -1.421875 27.09375 -1.421875 
Q 22.515625 -1.421875 17.65625 -0.515625 
Q 12.796875 0.390625 7.625 2.203125 
L 7.625 11.71875 
Q 11.71875 9.328125 16.59375 8.109375 
Q 21.484375 6.890625 26.8125 6.890625 
Q 36.078125 6.890625 40.9375 10.546875 
Q 45.796875 14.203125 45.796875 21.1875 
Q 45.796875 27.640625 41.28125 31.265625 
Q 36.765625 34.90625 28.71875 34.90625 
L 20.21875 34.90625 
L 20.21875 43.015625 
L 29.109375 43.015625 
Q 36.375 43.015625 40.234375 45.921875 
Q 44.09375 48.828125 44.09375 54.296875 
Q 44.09375 59.90625 40.109375 62.90625 
Q 36.140625 65.921875 28.71875 65.921875 
Q 24.65625 65.921875 20.015625 65.03125 
Q 15.375 64.15625 9.8125 62.3125 
L 9.8125 71.09375 
Q 15.4375 72.65625 20.34375 73.4375 
Q 25.25 74.21875 29.59375 74.21875 
Q 40.828125 74.21875 47.359375 69.109375 
Q 53.90625 64.015625 53.90625 55.328125 
Q 53.90625 49.265625 50.4375 45.09375 
Q 46.96875 40.921875 40.578125 39.3125 
z
" id="DejaVuSans-33"/>
      </defs>
      <g transform="translate(313.707077 260.798437)scale(0.1 -0.1)">
       <use xlink:href="#DejaVuSans-32"/>
       <use x="63.623047" xlink:href="#DejaVuSans-30"/>
       <use x="127.246094" xlink:href="#DejaVuSans-31"/>
       <use x="190.869141" xlink:href="#DejaVuSans-38"/>
       <use x="254.492188" xlink:href="#DejaVuSans-2d"/>
       <use x="290.576172" xlink:href="#DejaVuSans-30"/>
       <use x="354.199219" xlink:href="#DejaVuSans-33"/>
      </g>
     </g>
    </g>
    <g id="xtick_6">
     <g id="line2d_11">
      <path clip-path="url(#p06783aeb6c)" d="M 405.076523 246.2 
L 405.076523 26.8 
" style="fill:none;stroke:#b0b0b0;stroke-linecap:square;stroke-width:0.8;"/>
     </g>
     <g id="line2d_12">
      <g>
       <use style="stroke:#000000;stroke-width:0.8;" x="405.076523" xlink:href="#ma4dfbf575c" y="246.2"/>
      </g>
     </g>
     <g id="text_6">
      <!-- 2018-04 -->
      <defs>
       <path d="M 37.796875 64.3125 
L 12.890625 25.390625 
L 37.796875 25.390625 
z
M 35.203125 72.90625 
L 47.609375 72.90625 
L 47.609375 25.390625 
L 58.015625 25.390625 
L 58.015625 17.1875 
L 47.609375 17.1875 
L 47.609375 0 
L 37.796875 0 
L 37.796875 17.1875 
L 4.890625 17.1875 
L 4.890625 26.703125 
z
" id="DejaVuSans-34"/>
      </defs>
      <g transform="translate(384.185117 260.798437)scale(0.1 -0.1)">
       <use xlink:href="#DejaVuSans-32"/>
       <use x="63.623047" xlink:href="#DejaVuSans-30"/>
       <use x="127.246094" xlink:href="#DejaVuSans-31"/>
       <use x="190.869141" xlink:href="#DejaVuSans-38"/>
       <use x="254.492188" xlink:href="#DejaVuSans-2d"/>
       <use x="290.576172" xlink:href="#DejaVuSans-30"/>
       <use x="354.199219" xlink:href="#DejaVuSans-34"/>
      </g>
     </g>
    </g>
    <g id="xtick_7">
     <g id="line2d_13">
      <path clip-path="url(#p06783aeb6c)" d="M 473.281077 246.2 
L 473.281077 26.8 
" style="fill:none;stroke:#b0b0b0;stroke-linecap:square;stroke-width:0.8;"/>
     </g>
     <g id="line2d_14">
      <g>
       <use style="stroke:#000000;stroke-width:0.8;" x="473.281077" xlink:href="#ma4dfbf575c" y="246.2"/>
      </g>
     </g>
     <g id="text_7">
      <!-- 2018-05 -->
      <defs>
       <path d="M 10.796875 72.90625 
L 49.515625 72.90625 
L 49.515625 64.59375 
L 19.828125 64.59375 
L 19.828125 46.734375 
Q 21.96875 47.46875 24.109375 47.828125 
Q 26.265625 48.1875 28.421875 48.1875 
Q 40.625 48.1875 47.75 41.5 
Q 54.890625 34.8125 54.890625 23.390625 
Q 54.890625 11.625 47.5625 5.09375 
Q 40.234375 -1.421875 26.90625 -1.421875 
Q 22.3125 -1.421875 17.546875 -0.640625 
Q 12.796875 0.140625 7.71875 1.703125 
L 7.71875 11.625 
Q 12.109375 9.234375 16.796875 8.0625 
Q 21.484375 6.890625 26.703125 6.890625 
Q 35.15625 6.890625 40.078125 11.328125 
Q 45.015625 15.765625 45.015625 23.390625 
Q 45.015625 31 40.078125 35.4375 
Q 35.15625 39.890625 26.703125 39.890625 
Q 22.75 39.890625 18.8125 39.015625 
Q 14.890625 38.140625 10.796875 36.28125 
z
" id="DejaVuSans-35"/>
      </defs>
      <g transform="translate(452.389671 260.798437)scale(0.1 -0.1)">
       <use xlink:href="#DejaVuSans-32"/>
       <use x="63.623047" xlink:href="#DejaVuSans-30"/>
       <use x="127.246094" xlink:href="#DejaVuSans-31"/>
       <use x="190.869141" xlink:href="#DejaVuSans-38"/>
       <use x="254.492188" xlink:href="#DejaVuSans-2d"/>
       <use x="290.576172" xlink:href="#DejaVuSans-30"/>
       <use x="354.199219" xlink:href="#DejaVuSans-35"/>
      </g>
     </g>
    </g>
    <g id="xtick_8">
     <g id="line2d_15">
      <path clip-path="url(#p06783aeb6c)" d="M 543.759117 246.2 
L 543.759117 26.8 
" style="fill:none;stroke:#b0b0b0;stroke-linecap:square;stroke-width:0.8;"/>
     </g>
     <g id="line2d_16">
      <g>
       <use style="stroke:#000000;stroke-width:0.8;" x="543.759117" xlink:href="#ma4dfbf575c" y="246.2"/>
      </g>
     </g>
     <g id="text_8">
      <!-- 2018-06 -->
      <defs>
       <path d="M 33.015625 40.375 
Q 26.375 40.375 22.484375 35.828125 
Q 18.609375 31.296875 18.609375 23.390625 
Q 18.609375 15.53125 22.484375 10.953125 
Q 26.375 6.390625 33.015625 6.390625 
Q 39.65625 6.390625 43.53125 10.953125 
Q 47.40625 15.53125 47.40625 23.390625 
Q 47.40625 31.296875 43.53125 35.828125 
Q 39.65625 40.375 33.015625 40.375 
z
M 52.59375 71.296875 
L 52.59375 62.3125 
Q 48.875 64.0625 45.09375 64.984375 
Q 41.3125 65.921875 37.59375 65.921875 
Q 27.828125 65.921875 22.671875 59.328125 
Q 17.53125 52.734375 16.796875 39.40625 
Q 19.671875 43.65625 24.015625 45.921875 
Q 28.375 48.1875 33.59375 48.1875 
Q 44.578125 48.1875 50.953125 41.515625 
Q 57.328125 34.859375 57.328125 23.390625 
Q 57.328125 12.15625 50.6875 5.359375 
Q 44.046875 -1.421875 33.015625 -1.421875 
Q 20.359375 -1.421875 13.671875 8.265625 
Q 6.984375 17.96875 6.984375 36.375 
Q 6.984375 53.65625 15.1875 63.9375 
Q 23.390625 74.21875 37.203125 74.21875 
Q 40.921875 74.21875 44.703125 73.484375 
Q 48.484375 72.75 52.59375 71.296875 
z
" id="DejaVuSans-36"/>
      </defs>
      <g transform="translate(522.86771 260.798437)scale(0.1 -0.1)">
       <use xlink:href="#DejaVuSans-32"/>
       <use x="63.623047" xlink:href="#DejaVuSans-30"/>
       <use x="127.246094" xlink:href="#DejaVuSans-31"/>
       <use x="190.869141" xlink:href="#DejaVuSans-38"/>
       <use x="254.492188" xlink:href="#DejaVuSans-2d"/>
       <use x="290.576172" xlink:href="#DejaVuSans-30"/>
       <use x="354.199219" xlink:href="#DejaVuSans-36"/>
      </g>
     </g>
    </g>
    <g id="text_9">
     <!-- Date -->
     <defs>
      <path d="M 19.671875 64.796875 
L 19.671875 8.109375 
L 31.59375 8.109375 
Q 46.6875 8.109375 53.6875 14.9375 
Q 60.6875 21.78125 60.6875 36.53125 
Q 60.6875 51.171875 53.6875 57.984375 
Q 46.6875 64.796875 31.59375 64.796875 
z
M 9.8125 72.90625 
L 30.078125 72.90625 
Q 51.265625 72.90625 61.171875 64.09375 
Q 71.09375 55.28125 71.09375 36.53125 
Q 71.09375 17.671875 61.125 8.828125 
Q 51.171875 0 30.078125 0 
L 9.8125 0 
z
" id="DejaVuSans-44"/>
      <path d="M 34.28125 27.484375 
Q 23.390625 27.484375 19.1875 25 
Q 14.984375 22.515625 14.984375 16.5 
Q 14.984375 11.71875 18.140625 8.90625 
Q 21.296875 6.109375 26.703125 6.109375 
Q 34.1875 6.109375 38.703125 11.40625 
Q 43.21875 16.703125 43.21875 25.484375 
L 43.21875 27.484375 
z
M 52.203125 31.203125 
L 52.203125 0 
L 43.21875 0 
L 43.21875 8.296875 
Q 40.140625 3.328125 35.546875 0.953125 
Q 30.953125 -1.421875 24.3125 -1.421875 
Q 15.921875 -1.421875 10.953125 3.296875 
Q 6 8.015625 6 15.921875 
Q 6 25.140625 12.171875 29.828125 
Q 18.359375 34.515625 30.609375 34.515625 
L 43.21875 34.515625 
L 43.21875 35.40625 
Q 43.21875 41.609375 39.140625 45 
Q 35.0625 48.390625 27.6875 48.390625 
Q 23 48.390625 18.546875 47.265625 
Q 14.109375 46.140625 10.015625 43.890625 
L 10.015625 52.203125 
Q 14.9375 54.109375 19.578125 55.046875 
Q 24.21875 56 28.609375 56 
Q 40.484375 56 46.34375 49.84375 
Q 52.203125 43.703125 52.203125 31.203125 
z
" id="DejaVuSans-61"/>
      <path d="M 18.3125 70.21875 
L 18.3125 54.6875 
L 36.8125 54.6875 
L 36.8125 47.703125 
L 18.3125 47.703125 
L 18.3125 18.015625 
Q 18.3125 11.328125 20.140625 9.421875 
Q 21.96875 7.515625 27.59375 7.515625 
L 36.8125 7.515625 
L 36.8125 0 
L 27.59375 0 
Q 17.1875 0 13.234375 3.875 
Q 9.28125 7.765625 9.28125 18.015625 
L 9.28125 47.703125 
L 2.6875 47.703125 
L 2.6875 54.6875 
L 9.28125 54.6875 
L 9.28125 70.21875 
z
" id="DejaVuSans-74"/>
      <path d="M 56.203125 29.59375 
L 56.203125 25.203125 
L 14.890625 25.203125 
Q 15.484375 15.921875 20.484375 11.0625 
Q 25.484375 6.203125 34.421875 6.203125 
Q 39.59375 6.203125 44.453125 7.46875 
Q 49.3125 8.734375 54.109375 11.28125 
L 54.109375 2.78125 
Q 49.265625 0.734375 44.1875 -0.34375 
Q 39.109375 -1.421875 33.890625 -1.421875 
Q 20.796875 -1.421875 13.15625 6.1875 
Q 5.515625 13.8125 5.515625 26.8125 
Q 5.515625 40.234375 12.765625 48.109375 
Q 20.015625 56 32.328125 56 
Q 43.359375 56 49.78125 48.890625 
Q 56.203125 41.796875 56.203125 29.59375 
z
M 47.21875 32.234375 
Q 47.125 39.59375 43.09375 43.984375 
Q 39.0625 48.390625 32.421875 48.390625 
Q 24.90625 48.390625 20.390625 44.140625 
Q 15.875 39.890625 15.1875 32.171875 
z
" id="DejaVuSans-65"/>
     </defs>
     <g transform="translate(289.682168 274.476562)scale(0.1 -0.1)">
      <use xlink:href="#DejaVuSans-44"/>
      <use x="77.001953" xlink:href="#DejaVuSans-61"/>
      <use x="138.28125" xlink:href="#DejaVuSans-74"/>
      <use x="177.490234" xlink:href="#DejaVuSans-65"/>
     </g>
    </g>
   </g>
   <g id="matplotlib.axis_2">
    <g id="ytick_1">
     <g id="line2d_17">
      <path clip-path="url(#p06783aeb6c)" d="M 52.8 238.922189 
L 550.465898 238.922189 
" style="fill:none;stroke:#b0b0b0;stroke-linecap:square;stroke-width:0.8;"/>
     </g>
     <g id="line2d_18">
      <defs>
       <path d="M 0 0 
L -3.5 0 
" id="mdac25ec472" style="stroke:#000000;stroke-width:0.8;"/>
      </defs>
      <g>
       <use style="stroke:#000000;stroke-width:0.8;" x="52.8" xlink:href="#mdac25ec472" y="238.922189"/>
      </g>
     </g>
     <g id="text_10">
      <!-- −10 -->
      <defs>
       <path d="M 10.59375 35.5 
L 73.1875 35.5 
L 73.1875 27.203125 
L 10.59375 27.203125 
z
" id="DejaVuSans-2212"/>
      </defs>
      <g transform="translate(24.695313 242.721407)scale(0.1 -0.1)">
       <use xlink:href="#DejaVuSans-2212"/>
       <use x="83.789062" xlink:href="#DejaVuSans-31"/>
       <use x="147.412109" xlink:href="#DejaVuSans-30"/>
      </g>
     </g>
    </g>
    <g id="ytick_2">
     <g id="line2d_19">
      <path clip-path="url(#p06783aeb6c)" d="M 52.8 208.569076 
L 550.465898 208.569076 
" style="fill:none;stroke:#b0b0b0;stroke-linecap:square;stroke-width:0.8;"/>
     </g>
     <g id="line2d_20">
      <g>
       <use style="stroke:#000000;stroke-width:0.8;" x="52.8" xlink:href="#mdac25ec472" y="208.569076"/>
      </g>
     </g>
     <g id="text_11">
      <!-- −5 -->
      <g transform="translate(31.057813 212.368295)scale(0.1 -0.1)">
       <use xlink:href="#DejaVuSans-2212"/>
       <use x="83.789062" xlink:href="#DejaVuSans-35"/>
      </g>
     </g>
    </g>
    <g id="ytick_3">
     <g id="line2d_21">
      <path clip-path="url(#p06783aeb6c)" d="M 52.8 178.215964 
L 550.465898 178.215964 
" style="fill:none;stroke:#b0b0b0;stroke-linecap:square;stroke-width:0.8;"/>
     </g>
     <g id="line2d_22">
      <g>
       <use style="stroke:#000000;stroke-width:0.8;" x="52.8" xlink:href="#mdac25ec472" y="178.215964"/>
      </g>
     </g>
     <g id="text_12">
      <!-- 0 -->
      <g transform="translate(39.4375 182.015182)scale(0.1 -0.1)">
       <use xlink:href="#DejaVuSans-30"/>
      </g>
     </g>
    </g>
    <g id="ytick_4">
     <g id="line2d_23">
      <path clip-path="url(#p06783aeb6c)" d="M 52.8 147.862851 
L 550.465898 147.862851 
" style="fill:none;stroke:#b0b0b0;stroke-linecap:square;stroke-width:0.8;"/>
     </g>
     <g id="line2d_24">
      <g>
       <use style="stroke:#000000;stroke-width:0.8;" x="52.8" xlink:href="#mdac25ec472" y="147.862851"/>
      </g>
     </g>
     <g id="text_13">
      <!-- 5 -->
      <g transform="translate(39.4375 151.66207)scale(0.1 -0.1)">
       <use xlink:href="#DejaVuSans-35"/>
      </g>
     </g>
    </g>
    <g id="ytick_5">
     <g id="line2d_25">
      <path clip-path="url(#p06783aeb6c)" d="M 52.8 117.509739 
L 550.465898 117.509739 
" style="fill:none;stroke:#b0b0b0;stroke-linecap:square;stroke-width:0.8;"/>
     </g>
     <g id="line2d_26">
      <g>
       <use style="stroke:#000000;stroke-width:0.8;" x="52.8" xlink:href="#mdac25ec472" y="117.509739"/>
      </g>
     </g>
     <g id="text_14">
      <!-- 10 -->
      <g transform="translate(33.075 121.308957)scale(0.1 -0.1)">
       <use xlink:href="#DejaVuSans-31"/>
       <use x="63.623047" xlink:href="#DejaVuSans-30"/>
      </g>
     </g>
    </g>
    <g id="ytick_6">
     <g id="line2d_27">
      <path clip-path="url(#p06783aeb6c)" d="M 52.8 87.156626 
L 550.465898 87.156626 
" style="fill:none;stroke:#b0b0b0;stroke-linecap:square;stroke-width:0.8;"/>
     </g>
     <g id="line2d_28">
      <g>
       <use style="stroke:#000000;stroke-width:0.8;" x="52.8" xlink:href="#mdac25ec472" y="87.156626"/>
      </g>
     </g>
     <g id="text_15">
      <!-- 15 -->
      <g transform="translate(33.075 90.955845)scale(0.1 -0.1)">
       <use xlink:href="#DejaVuSans-31"/>
       <use x="63.623047" xlink:href="#DejaVuSans-35"/>
      </g>
     </g>
    </g>
    <g id="ytick_7">
     <g id="line2d_29">
      <path clip-path="url(#p06783aeb6c)" d="M 52.8 56.803514 
L 550.465898 56.803514 
" style="fill:none;stroke:#b0b0b0;stroke-linecap:square;stroke-width:0.8;"/>
     </g>
     <g id="line2d_30">
      <g>
       <use style="stroke:#000000;stroke-width:0.8;" x="52.8" xlink:href="#mdac25ec472" y="56.803514"/>
      </g>
     </g>
     <g id="text_16">
      <!-- 20 -->
      <g transform="translate(33.075 60.602732)scale(0.1 -0.1)">
       <use xlink:href="#DejaVuSans-32"/>
       <use x="63.623047" xlink:href="#DejaVuSans-30"/>
      </g>
     </g>
    </g>
    <g id="ytick_8">
     <g id="line2d_31">
      <path clip-path="url(#p06783aeb6c)" d="M 52.8 26.450401 
L 550.465898 26.450401 
" style="fill:none;stroke:#b0b0b0;stroke-linecap:square;stroke-width:0.8;"/>
     </g>
     <g id="line2d_32">
      <g>
       <use style="stroke:#000000;stroke-width:0.8;" x="52.8" xlink:href="#mdac25ec472" y="26.450401"/>
      </g>
     </g>
     <g id="text_17">
      <!-- 25 -->
      <g transform="translate(33.075 30.24962)scale(0.1 -0.1)">
       <use xlink:href="#DejaVuSans-32"/>
       <use x="63.623047" xlink:href="#DejaVuSans-35"/>
      </g>
     </g>
    </g>
    <g id="text_18">
     <!-- Cum. sum -->
     <defs>
      <path d="M 64.40625 67.28125 
L 64.40625 56.890625 
Q 59.421875 61.53125 53.78125 63.8125 
Q 48.140625 66.109375 41.796875 66.109375 
Q 29.296875 66.109375 22.65625 58.46875 
Q 16.015625 50.828125 16.015625 36.375 
Q 16.015625 21.96875 22.65625 14.328125 
Q 29.296875 6.6875 41.796875 6.6875 
Q 48.140625 6.6875 53.78125 8.984375 
Q 59.421875 11.28125 64.40625 15.921875 
L 64.40625 5.609375 
Q 59.234375 2.09375 53.4375 0.328125 
Q 47.65625 -1.421875 41.21875 -1.421875 
Q 24.65625 -1.421875 15.125 8.703125 
Q 5.609375 18.84375 5.609375 36.375 
Q 5.609375 53.953125 15.125 64.078125 
Q 24.65625 74.21875 41.21875 74.21875 
Q 47.75 74.21875 53.53125 72.484375 
Q 59.328125 70.75 64.40625 67.28125 
z
" id="DejaVuSans-43"/>
      <path d="M 8.5 21.578125 
L 8.5 54.6875 
L 17.484375 54.6875 
L 17.484375 21.921875 
Q 17.484375 14.15625 20.5 10.265625 
Q 23.53125 6.390625 29.59375 6.390625 
Q 36.859375 6.390625 41.078125 11.03125 
Q 45.3125 15.671875 45.3125 23.6875 
L 45.3125 54.6875 
L 54.296875 54.6875 
L 54.296875 0 
L 45.3125 0 
L 45.3125 8.40625 
Q 42.046875 3.421875 37.71875 1 
Q 33.40625 -1.421875 27.6875 -1.421875 
Q 18.265625 -1.421875 13.375 4.4375 
Q 8.5 10.296875 8.5 21.578125 
z
M 31.109375 56 
z
" id="DejaVuSans-75"/>
      <path d="M 52 44.1875 
Q 55.375 50.25 60.0625 53.125 
Q 64.75 56 71.09375 56 
Q 79.640625 56 84.28125 50.015625 
Q 88.921875 44.046875 88.921875 33.015625 
L 88.921875 0 
L 79.890625 0 
L 79.890625 32.71875 
Q 79.890625 40.578125 77.09375 44.375 
Q 74.3125 48.1875 68.609375 48.1875 
Q 61.625 48.1875 57.5625 43.546875 
Q 53.515625 38.921875 53.515625 30.90625 
L 53.515625 0 
L 44.484375 0 
L 44.484375 32.71875 
Q 44.484375 40.625 41.703125 44.40625 
Q 38.921875 48.1875 33.109375 48.1875 
Q 26.21875 48.1875 22.15625 43.53125 
Q 18.109375 38.875 18.109375 30.90625 
L 18.109375 0 
L 9.078125 0 
L 9.078125 54.6875 
L 18.109375 54.6875 
L 18.109375 46.1875 
Q 21.1875 51.21875 25.484375 53.609375 
Q 29.78125 56 35.6875 56 
Q 41.65625 56 45.828125 52.96875 
Q 50 49.953125 52 44.1875 
z
" id="DejaVuSans-6d"/>
      <path d="M 10.6875 12.40625 
L 21 12.40625 
L 21 0 
L 10.6875 0 
z
" id="DejaVuSans-2e"/>
      <path id="DejaVuSans-20"/>
      <path d="M 44.28125 53.078125 
L 44.28125 44.578125 
Q 40.484375 46.53125 36.375 47.5 
Q 32.28125 48.484375 27.875 48.484375 
Q 21.1875 48.484375 17.84375 46.4375 
Q 14.5 44.390625 14.5 40.28125 
Q 14.5 37.15625 16.890625 35.375 
Q 19.28125 33.59375 26.515625 31.984375 
L 29.59375 31.296875 
Q 39.15625 29.25 43.1875 25.515625 
Q 47.21875 21.78125 47.21875 15.09375 
Q 47.21875 7.46875 41.1875 3.015625 
Q 35.15625 -1.421875 24.609375 -1.421875 
Q 20.21875 -1.421875 15.453125 -0.5625 
Q 10.6875 0.296875 5.421875 2 
L 5.421875 11.28125 
Q 10.40625 8.6875 15.234375 7.390625 
Q 20.0625 6.109375 24.8125 6.109375 
Q 31.15625 6.109375 34.5625 8.28125 
Q 37.984375 10.453125 37.984375 14.40625 
Q 37.984375 18.0625 35.515625 20.015625 
Q 33.0625 21.96875 24.703125 23.78125 
L 21.578125 24.515625 
Q 13.234375 26.265625 9.515625 29.90625 
Q 5.8125 33.546875 5.8125 39.890625 
Q 5.8125 47.609375 11.28125 51.796875 
Q 16.75 56 26.8125 56 
Q 31.78125 56 36.171875 55.265625 
Q 40.578125 54.546875 44.28125 53.078125 
z
" id="DejaVuSans-73"/>
     </defs>
     <g transform="translate(18.615625 161.852344)rotate(-90)scale(0.1 -0.1)">
      <use xlink:href="#DejaVuSans-43"/>
      <use x="69.824219" xlink:href="#DejaVuSans-75"/>
      <use x="133.203125" xlink:href="#DejaVuSans-6d"/>
      <use x="230.615234" xlink:href="#DejaVuSans-2e"/>
      <use x="262.402344" xlink:href="#DejaVuSans-20"/>
      <use x="294.189453" xlink:href="#DejaVuSans-73"/>
      <use x="346.289062" xlink:href="#DejaVuSans-75"/>
      <use x="409.667969" xlink:href="#DejaVuSans-6d"/>
     </g>
    </g>
   </g>
   <g id="line2d_33">
    <path clip-path="url(#p06783aeb6c)" d="M 75.421177 179.919994 
L 77.694662 173.235543 
L 79.968147 173.167101 
L 82.241633 169.467091 
L 84.515118 165.195571 
L 86.788603 167.084553 
L 89.062088 161.61112 
L 91.335573 157.872001 
L 93.609058 155.546006 
L 95.882543 156.712347 
L 98.156029 155.55976 
L 100.429514 145.939338 
L 102.702999 146.497164 
L 104.976484 156.371771 
L 107.249969 162.353394 
L 109.523454 160.684119 
L 111.796939 149.461143 
L 114.070425 151.010118 
L 116.34391 147.502185 
L 118.617395 136.668385 
L 120.89088 136.402848 
L 123.164365 141.69279 
L 125.43785 135.870931 
L 127.711335 135.893786 
L 129.984821 136.786263 
L 132.258306 129.87692 
L 134.531791 130.161479 
L 136.805276 121.696938 
L 139.078761 116.360886 
L 141.352246 115.785203 
L 143.625731 117.789196 
L 145.899217 124.288661 
L 148.172702 127.975265 
L 150.446187 133.514857 
L 152.719672 126.090492 
L 154.993157 131.450315 
L 157.266642 140.718342 
L 159.540127 144.768236 
L 161.813613 129.456734 
L 164.087098 132.755708 
L 166.360583 133.86526 
L 168.634068 128.850219 
L 170.907553 117.057121 
L 173.181038 108.581177 
L 175.454523 104.360093 
L 177.728009 111.271579 
L 180.001494 109.086236 
L 182.274979 103.989987 
L 184.548464 96.817472 
L 186.821949 94.733915 
L 189.095434 103.155525 
L 191.368919 114.526992 
L 193.642405 112.797343 
L 195.91589 119.851888 
L 198.189375 122.595658 
L 200.46286 130.999947 
L 202.736345 120.231298 
L 205.00983 127.055562 
L 207.283315 124.981693 
L 209.556801 132.084121 
L 211.830286 136.80455 
L 214.103771 132.262711 
L 216.377256 132.953201 
L 218.650741 138.738577 
L 220.924226 145.44905 
L 223.197711 142.846957 
L 225.471197 146.653418 
L 227.744682 144.271723 
L 230.018167 138.825567 
L 232.291652 131.637116 
L 234.565137 118.078928 
L 236.838622 121.769446 
L 239.112107 112.157807 
L 241.385593 115.936103 
L 243.659078 118.24473 
L 245.932563 113.108606 
L 248.206048 119.200671 
L 250.479533 121.581591 
L 252.753018 126.876822 
L 255.026503 130.381896 
L 257.299989 120.338581 
L 259.573474 111.132127 
L 261.846959 105.938588 
L 264.120444 105.804936 
L 266.393929 103.886268 
L 268.667414 94.82452 
L 270.940899 99.933755 
L 273.214385 102.838083 
L 275.48787 107.509514 
L 280.03484 118.06395 
L 282.308325 126.624367 
L 284.58181 130.268336 
L 286.855295 134.380377 
L 289.128781 142.933709 
L 291.402266 150.676431 
L 293.675751 142.89209 
L 295.949236 142.952527 
L 298.222721 144.952674 
L 300.496206 146.678654 
L 305.043177 148.527778 
L 307.316662 150.755038 
L 309.590147 153.712764 
L 311.863632 151.285682 
L 314.137117 147.749124 
L 316.410602 138.495885 
L 318.684087 126.685713 
L 320.957573 132.869487 
L 323.231058 130.737178 
L 325.504543 130.435904 
L 327.778028 138.703213 
L 330.051513 141.847893 
L 332.324998 132.889906 
L 334.598483 129.225532 
L 336.871969 132.062515 
L 339.145454 131.606459 
L 341.418939 132.1215 
L 343.692424 126.862996 
L 345.965909 130.610007 
L 348.239394 137.024885 
L 350.512879 142.003017 
L 352.786365 136.340671 
L 355.05985 136.224294 
L 357.333335 130.444797 
L 359.60682 124.157665 
L 361.880305 123.025196 
L 364.15379 122.128844 
L 366.427275 128.642584 
L 368.700761 114.010722 
L 370.974246 117.029028 
L 373.247731 112.105356 
L 375.521216 116.294009 
L 377.794701 113.386344 
L 380.068186 107.431652 
L 382.341671 110.709389 
L 384.615157 118.748703 
L 386.888642 121.170016 
L 389.162127 125.433079 
L 391.435612 125.323494 
L 393.709097 133.65142 
L 395.982582 135.159694 
L 398.256067 139.233071 
L 400.529553 138.497984 
L 402.803038 141.545768 
L 405.076523 143.976022 
L 407.350008 136.533764 
L 409.623493 135.596608 
L 411.896978 130.912904 
L 414.170463 130.410541 
L 416.443949 140.775414 
L 418.717434 144.86967 
L 420.990919 150.747061 
L 423.264404 146.286122 
L 425.537889 152.802016 
L 427.811374 152.501084 
L 430.084859 150.756861 
L 432.358345 139.13534 
L 434.63183 133.912945 
L 436.905315 142.860207 
L 439.1788 148.931047 
L 441.452285 146.219957 
L 443.72577 137.08515 
L 445.999255 134.508631 
L 448.272741 127.153348 
L 450.546226 125.454932 
L 452.819711 129.056657 
L 455.093196 112.969657 
L 457.366681 110.387376 
L 459.640166 97.268707 
L 461.913651 106.916338 
L 464.187137 95.268639 
L 466.460622 99.330364 
L 468.734107 96.328642 
L 471.007592 101.00604 
L 473.281077 109.119227 
L 475.554562 112.680244 
L 477.828047 94.630957 
L 480.101533 98.608526 
L 482.375018 103.456837 
L 484.648503 111.565249 
L 486.921988 114.850536 
L 489.195473 115.719116 
L 491.468958 111.302007 
L 493.742443 106.422798 
L 496.015929 113.596079 
L 498.289414 118.35142 
L 500.562899 114.398304 
L 502.836384 114.229979 
L 505.109869 109.063976 
L 507.383354 100.761236 
L 509.656839 106.975862 
L 511.930325 106.213628 
L 514.20381 106.860707 
L 516.477295 94.83024 
L 518.75078 96.864493 
L 521.024265 100.542865 
L 523.29775 94.829816 
L 525.571235 95.424408 
L 527.844721 93.312264 
L 527.844721 93.312264 
" style="fill:none;stroke:#1f77b4;stroke-linecap:square;stroke-width:1.5;"/>
   </g>
   <g id="line2d_34">
    <path clip-path="url(#p06783aeb6c)" d="M 75.421177 180.107894 
L 77.694662 179.230606 
L 79.968147 175.751927 
L 82.241633 161.423035 
L 84.515118 162.209498 
L 86.788603 160.889337 
L 89.062088 171.098571 
L 91.335573 172.384821 
L 93.609058 162.373381 
L 95.882543 167.804994 
L 98.156029 162.842378 
L 100.429514 162.421237 
L 102.702999 165.581554 
L 104.976484 175.548579 
L 107.249969 176.750899 
L 109.523454 189.409582 
L 111.796939 186.610268 
L 114.070425 188.237072 
L 116.34391 192.906339 
L 118.617395 197.147738 
L 120.89088 195.499128 
L 123.164365 189.109454 
L 125.43785 186.519427 
L 127.711335 182.780474 
L 129.984821 182.584853 
L 132.258306 191.738336 
L 134.531791 199.166352 
L 136.805276 202.889102 
L 139.078761 209.14611 
L 141.352246 207.033132 
L 143.625731 207.953835 
L 145.899217 216.22585 
L 148.172702 220.308417 
L 150.446187 211.5452 
L 152.719672 212.565347 
L 154.993157 203.718506 
L 157.266642 198.087736 
L 159.540127 195.86029 
L 161.813613 187.071462 
L 164.087098 180.29816 
L 166.360583 176.317811 
L 168.634068 179.909209 
L 170.907553 165.65422 
L 173.181038 163.759398 
L 175.454523 171.709718 
L 177.728009 169.708526 
L 180.001494 163.805074 
L 182.274979 163.622765 
L 184.548464 170.000643 
L 186.821949 170.458909 
L 189.095434 166.089406 
L 191.368919 166.157842 
L 193.642405 171.057151 
L 195.91589 174.427398 
L 198.189375 167.614834 
L 200.46286 160.089641 
L 202.736345 173.400918 
L 205.00983 176.256461 
L 207.283315 176.237326 
L 209.556801 182.904755 
L 211.830286 185.038527 
L 214.103771 183.441315 
L 216.377256 192.131882 
L 218.650741 190.498689 
L 220.924226 190.862149 
L 223.197711 192.338094 
L 225.471197 191.393223 
L 227.744682 197.82951 
L 230.018167 198.458043 
L 232.291652 198.634328 
L 234.565137 187.053516 
L 236.838622 195.473479 
L 239.112107 193.28678 
L 241.385593 200.914881 
L 243.659078 199.940458 
L 245.932563 199.122372 
L 248.206048 208.157216 
L 250.479533 204.537155 
L 252.753018 206.833863 
L 255.026503 212.574054 
L 257.299989 217.090121 
L 259.573474 218.36377 
L 261.846959 209.900135 
L 264.120444 197.28222 
L 266.393929 191.103189 
L 268.667414 198.140901 
L 270.940899 185.868514 
L 275.48787 173.148284 
L 277.761355 167.345887 
L 280.03484 167.85885 
L 282.308325 169.553294 
L 284.58181 164.15796 
L 286.855295 166.372936 
L 291.402266 171.202623 
L 293.675751 173.629902 
L 295.949236 174.373094 
L 298.222721 157.926554 
L 300.496206 163.441841 
L 302.769691 174.841052 
L 305.043177 176.554036 
L 307.316662 181.646303 
L 309.590147 182.895262 
L 311.863632 179.006076 
L 314.137117 172.069687 
L 316.410602 169.295745 
L 318.684087 165.896009 
L 320.957573 164.594468 
L 323.231058 174.438854 
L 325.504543 170.051619 
L 327.778028 183.110918 
L 330.051513 182.519534 
L 332.324998 178.216707 
L 334.598483 189.451287 
L 336.871969 183.695638 
L 339.145454 178.558795 
L 341.418939 174.320441 
L 343.692424 170.685262 
L 345.965909 166.404942 
L 348.239394 175.625928 
L 350.512879 173.761251 
L 352.786365 161.348255 
L 355.05985 159.116787 
L 357.333335 157.118279 
L 359.60682 157.841485 
L 361.880305 158.31833 
L 364.15379 164.283905 
L 366.427275 168.743411 
L 368.700761 183.906946 
L 370.974246 184.201846 
L 373.247731 193.902103 
L 375.521216 192.560247 
L 377.794701 196.309735 
L 380.068186 202.376781 
L 382.341671 206.231881 
L 384.615157 209.668721 
L 386.888642 209.841145 
L 389.162127 199.360495 
L 391.435612 196.263283 
L 393.709097 198.232093 
L 395.982582 190.95855 
L 398.256067 192.372141 
L 400.529553 187.331636 
L 402.803038 186.697808 
L 405.076523 188.191147 
L 407.350008 186.325531 
L 409.623493 187.811364 
L 411.896978 196.694371 
L 414.170463 204.485369 
L 416.443949 210.102217 
L 418.717434 208.481706 
L 420.990919 196.112266 
L 423.264404 188.830194 
L 425.537889 201.492599 
L 427.811374 202.289311 
L 430.084859 206.062738 
L 432.358345 208.354997 
L 434.63183 204.809636 
L 436.905315 210.820491 
L 439.1788 218.998987 
L 441.452285 220.16822 
L 443.72577 222.415288 
L 445.999255 223.852004 
L 448.272741 226.299728 
L 450.546226 230.691109 
L 452.819711 218.65494 
L 457.366681 223.098398 
L 459.640166 218.891945 
L 461.913651 213.269691 
L 464.187137 211.189777 
L 466.460622 210.778526 
L 468.734107 209.198156 
L 471.007592 208.743418 
L 473.281077 201.223524 
L 475.554562 202.93094 
L 477.828047 205.021147 
L 480.101533 209.91302 
L 482.375018 211.751622 
L 484.648503 216.598733 
L 486.921988 213.733384 
L 489.195473 212.709139 
L 493.742443 201.192786 
L 496.015929 203.242848 
L 498.289414 206.081289 
L 500.562899 208.738945 
L 502.836384 210.119909 
L 505.109869 209.841052 
L 507.383354 208.405053 
L 509.656839 212.331016 
L 511.930325 225.062602 
L 514.20381 224.641542 
L 516.477295 231.096386 
L 518.75078 234.458666 
L 521.024265 236.227273 
L 523.29775 229.754019 
L 525.571235 235.723783 
L 527.844721 234.574033 
L 527.844721 234.574033 
" style="fill:none;stroke:#ff7f0e;stroke-linecap:square;stroke-width:1.5;"/>
   </g>
   <g id="line2d_35">
    <path clip-path="url(#p06783aeb6c)" d="M 75.421177 164.383639 
L 77.694662 166.066499 
L 79.968147 157.216964 
L 82.241633 146.069243 
L 84.515118 155.381797 
L 86.788603 150.619964 
L 89.062088 146.706513 
L 91.335573 146.037971 
L 93.609058 141.078136 
L 95.882543 137.669964 
L 98.156029 132.68632 
L 100.429514 130.552126 
L 102.702999 123.714418 
L 104.976484 133.896603 
L 107.249969 140.78797 
L 109.523454 144.992001 
L 111.796939 144.40636 
L 114.070425 139.624136 
L 116.34391 139.627062 
L 118.617395 147.3948 
L 120.89088 147.86467 
L 123.164365 149.743785 
L 125.43785 142.252922 
L 127.711335 149.838248 
L 129.984821 150.066574 
L 132.258306 145.247758 
L 134.531791 151.773784 
L 136.805276 147.575734 
L 139.078761 143.130024 
L 141.352246 149.464825 
L 143.625731 154.259687 
L 145.899217 159.656765 
L 148.172702 157.9729 
L 150.446187 152.616735 
L 152.719672 153.461173 
L 154.993157 161.473475 
L 157.266642 155.67409 
L 159.540127 148.855152 
L 161.813613 145.26293 
L 164.087098 147.529247 
L 166.360583 147.314343 
L 168.634068 142.013016 
L 170.907553 149.296128 
L 173.181038 141.934379 
L 175.454523 139.080904 
L 177.728009 135.998664 
L 180.001494 129.312143 
L 182.274979 129.27174 
L 184.548464 126.665392 
L 186.821949 132.201594 
L 189.095434 143.057615 
L 191.368919 133.00785 
L 193.642405 134.926293 
L 195.91589 139.043196 
L 198.189375 129.030243 
L 200.46286 132.417174 
L 205.00983 115.980609 
L 207.283315 108.720138 
L 209.556801 111.486897 
L 214.103771 119.359705 
L 216.377256 117.261263 
L 218.650741 114.277757 
L 220.924226 109.75898 
L 223.197711 112.613238 
L 225.471197 118.726306 
L 227.744682 116.303126 
L 230.018167 115.95821 
L 232.291652 120.112204 
L 234.565137 125.033174 
L 236.838622 130.24436 
L 239.112107 125.908688 
L 241.385593 130.240557 
L 243.659078 130.881157 
L 245.932563 131.925129 
L 248.206048 128.172453 
L 250.479533 129.659338 
L 252.753018 132.352235 
L 255.026503 133.23146 
L 257.299989 134.896076 
L 259.573474 136.129417 
L 261.846959 146.427912 
L 264.120444 144.614172 
L 266.393929 146.913526 
L 268.667414 152.318875 
L 270.940899 160.357048 
L 273.214385 155.429368 
L 275.48787 160.770569 
L 277.761355 155.957323 
L 280.03484 153.531315 
L 282.308325 149.105299 
L 284.58181 156.112114 
L 286.855295 164.130194 
L 289.128781 151.885431 
L 291.402266 148.99506 
L 293.675751 144.033967 
L 295.949236 147.505246 
L 298.222721 147.624155 
L 300.496206 135.879733 
L 302.769691 128.90476 
L 305.043177 135.609357 
L 307.316662 143.696933 
L 309.590147 139.510696 
L 311.863632 139.762084 
L 314.137117 139.174038 
L 316.410602 140.591162 
L 318.684087 137.276844 
L 320.957573 135.940102 
L 323.231058 138.847542 
L 325.504543 141.540051 
L 327.778028 140.328375 
L 330.051513 133.614108 
L 332.324998 142.831971 
L 334.598483 149.291359 
L 336.871969 144.330436 
L 339.145454 142.928141 
L 341.418939 145.596926 
L 343.692424 146.144213 
L 345.965909 143.467244 
L 348.239394 146.845289 
L 350.512879 138.779376 
L 352.786365 138.81365 
L 355.05985 133.643169 
L 357.333335 128.184772 
L 359.60682 127.63494 
L 361.880305 123.113522 
L 364.15379 120.95335 
L 366.427275 124.680698 
L 368.700761 122.709697 
L 370.974246 124.58916 
L 373.247731 116.019903 
L 375.521216 121.018668 
L 377.794701 122.007119 
L 380.068186 126.05112 
L 382.341671 115.538355 
L 384.615157 115.269804 
L 386.888642 108.184379 
L 389.162127 98.864904 
L 391.435612 92.929337 
L 393.709097 84.80949 
L 395.982582 88.334002 
L 398.256067 90.412893 
L 400.529553 88.539398 
L 402.803038 92.022502 
L 405.076523 85.673787 
L 407.350008 75.684861 
L 409.623493 81.404984 
L 411.896978 78.95251 
L 414.170463 75.109043 
L 416.443949 80.913705 
L 418.717434 98.844347 
L 420.990919 109.256744 
L 423.264404 112.350055 
L 425.537889 101.892311 
L 427.811374 108.124629 
L 430.084859 106.715077 
L 432.358345 95.21664 
L 434.63183 96.616711 
L 436.905315 94.268542 
L 439.1788 98.537384 
L 441.452285 94.786022 
L 443.72577 88.403621 
L 445.999255 91.927494 
L 448.272741 93.837192 
L 450.546226 94.210548 
L 452.819711 100.167453 
L 455.093196 100.279531 
L 457.366681 107.11727 
L 459.640166 105.676345 
L 461.913651 91.700319 
L 464.187137 91.90943 
L 466.460622 96.870202 
L 468.734107 104.047394 
L 471.007592 93.023956 
L 473.281077 85.280307 
L 475.554562 90.120959 
L 477.828047 90.871387 
L 482.375018 70.826861 
L 484.648503 76.898952 
L 486.921988 77.831121 
L 489.195473 92.884191 
L 491.468958 67.972874 
L 493.742443 69.161682 
L 496.015929 68.518953 
L 498.289414 53.416377 
L 500.562899 51.391938 
L 502.836384 50.000177 
L 505.109869 49.728019 
L 507.383354 50.151975 
L 509.656839 49.141339 
L 511.930325 47.524478 
L 514.20381 42.277206 
L 516.477295 40.778547 
L 518.75078 36.772727 
L 521.024265 40.932963 
L 523.29775 46.70094 
L 525.571235 46.333332 
L 527.844721 53.514614 
L 527.844721 53.514614 
" style="fill:none;stroke:#2ca02c;stroke-linecap:square;stroke-width:1.5;"/>
   </g>
   <g id="patch_3">
    <path d="M 52.8 246.2 
L 52.8 26.8 
" style="fill:none;stroke:#000000;stroke-linecap:square;stroke-linejoin:miter;stroke-width:0.8;"/>
   </g>
   <g id="patch_4">
    <path d="M 550.465898 246.2 
L 550.465898 26.8 
" style="fill:none;stroke:#000000;stroke-linecap:square;stroke-linejoin:miter;stroke-width:0.8;"/>
   </g>
   <g id="patch_5">
    <path d="M 52.8 246.2 
L 550.465898 246.2 
" style="fill:none;stroke:#000000;stroke-linecap:square;stroke-linejoin:miter;stroke-width:0.8;"/>
   </g>
   <g id="patch_6">
    <path d="M 52.8 26.8 
L 550.465898 26.8 
" style="fill:none;stroke:#000000;stroke-linecap:square;stroke-linejoin:miter;stroke-width:0.8;"/>
   </g>
   <g id="text_19">
    <!-- Random trends -->
    <defs>
     <path d="M 44.390625 34.1875 
Q 47.5625 33.109375 50.5625 29.59375 
Q 53.5625 26.078125 56.59375 19.921875 
L 66.609375 0 
L 56 0 
L 46.6875 18.703125 
Q 43.0625 26.03125 39.671875 28.421875 
Q 36.28125 30.8125 30.421875 30.8125 
L 19.671875 30.8125 
L 19.671875 0 
L 9.8125 0 
L 9.8125 72.90625 
L 32.078125 72.90625 
Q 44.578125 72.90625 50.734375 67.671875 
Q 56.890625 62.453125 56.890625 51.90625 
Q 56.890625 45.015625 53.6875 40.46875 
Q 50.484375 35.9375 44.390625 34.1875 
z
M 19.671875 64.796875 
L 19.671875 38.921875 
L 32.078125 38.921875 
Q 39.203125 38.921875 42.84375 42.21875 
Q 46.484375 45.515625 46.484375 51.90625 
Q 46.484375 58.296875 42.84375 61.546875 
Q 39.203125 64.796875 32.078125 64.796875 
z
" id="DejaVuSans-52"/>
     <path d="M 54.890625 33.015625 
L 54.890625 0 
L 45.90625 0 
L 45.90625 32.71875 
Q 45.90625 40.484375 42.875 44.328125 
Q 39.84375 48.1875 33.796875 48.1875 
Q 26.515625 48.1875 22.3125 43.546875 
Q 18.109375 38.921875 18.109375 30.90625 
L 18.109375 0 
L 9.078125 0 
L 9.078125 54.6875 
L 18.109375 54.6875 
L 18.109375 46.1875 
Q 21.34375 51.125 25.703125 53.5625 
Q 30.078125 56 35.796875 56 
Q 45.21875 56 50.046875 50.171875 
Q 54.890625 44.34375 54.890625 33.015625 
z
" id="DejaVuSans-6e"/>
     <path d="M 45.40625 46.390625 
L 45.40625 75.984375 
L 54.390625 75.984375 
L 54.390625 0 
L 45.40625 0 
L 45.40625 8.203125 
Q 42.578125 3.328125 38.25 0.953125 
Q 33.9375 -1.421875 27.875 -1.421875 
Q 17.96875 -1.421875 11.734375 6.484375 
Q 5.515625 14.40625 5.515625 27.296875 
Q 5.515625 40.1875 11.734375 48.09375 
Q 17.96875 56 27.875 56 
Q 33.9375 56 38.25 53.625 
Q 42.578125 51.265625 45.40625 46.390625 
z
M 14.796875 27.296875 
Q 14.796875 17.390625 18.875 11.75 
Q 22.953125 6.109375 30.078125 6.109375 
Q 37.203125 6.109375 41.296875 11.75 
Q 45.40625 17.390625 45.40625 27.296875 
Q 45.40625 37.203125 41.296875 42.84375 
Q 37.203125 48.484375 30.078125 48.484375 
Q 22.953125 48.484375 18.875 42.84375 
Q 14.796875 37.203125 14.796875 27.296875 
z
" id="DejaVuSans-64"/>
     <path d="M 30.609375 48.390625 
Q 23.390625 48.390625 19.1875 42.75 
Q 14.984375 37.109375 14.984375 27.296875 
Q 14.984375 17.484375 19.15625 11.84375 
Q 23.34375 6.203125 30.609375 6.203125 
Q 37.796875 6.203125 41.984375 11.859375 
Q 46.1875 17.53125 46.1875 27.296875 
Q 46.1875 37.015625 41.984375 42.703125 
Q 37.796875 48.390625 30.609375 48.390625 
z
M 30.609375 56 
Q 42.328125 56 49.015625 48.375 
Q 55.71875 40.765625 55.71875 27.296875 
Q 55.71875 13.875 49.015625 6.21875 
Q 42.328125 -1.421875 30.609375 -1.421875 
Q 18.84375 -1.421875 12.171875 6.21875 
Q 5.515625 13.875 5.515625 27.296875 
Q 5.515625 40.765625 12.171875 48.375 
Q 18.84375 56 30.609375 56 
z
" id="DejaVuSans-6f"/>
     <path d="M 41.109375 46.296875 
Q 39.59375 47.171875 37.8125 47.578125 
Q 36.03125 48 33.890625 48 
Q 26.265625 48 22.1875 43.046875 
Q 18.109375 38.09375 18.109375 28.8125 
L 18.109375 0 
L 9.078125 0 
L 9.078125 54.6875 
L 18.109375 54.6875 
L 18.109375 46.1875 
Q 20.953125 51.171875 25.484375 53.578125 
Q 30.03125 56 36.53125 56 
Q 37.453125 56 38.578125 55.875 
Q 39.703125 55.765625 41.0625 55.515625 
z
" id="DejaVuSans-72"/>
    </defs>
    <g transform="translate(255.508886 20.8)scale(0.12 -0.12)">
     <use xlink:href="#DejaVuSans-52"/>
     <use x="69.451172" xlink:href="#DejaVuSans-61"/>
     <use x="130.730469" xlink:href="#DejaVuSans-6e"/>
     <use x="194.109375" xlink:href="#DejaVuSans-64"/>
     <use x="257.585938" xlink:href="#DejaVuSans-6f"/>
     <use x="318.767578" xlink:href="#DejaVuSans-6d"/>
     <use x="416.179688" xlink:href="#DejaVuSans-20"/>
     <use x="447.966797" xlink:href="#DejaVuSans-74"/>
     <use x="487.175781" xlink:href="#DejaVuSans-72"/>
     <use x="528.257812" xlink:href="#DejaVuSans-65"/>
     <use x="589.78125" xlink:href="#DejaVuSans-6e"/>
     <use x="653.160156" xlink:href="#DejaVuSans-64"/>
     <use x="716.636719" xlink:href="#DejaVuSans-73"/>
    </g>
   </g>
   <g id="legend_1">
    <g id="patch_7">
     <path d="M 58.631 70.277394 
L 100.331761 70.277394 
Q 101.997761 70.277394 101.997761 68.611394 
L 101.997761 32.631 
Q 101.997761 30.965 100.331761 30.965 
L 58.631 30.965 
Q 56.965 30.965 56.965 32.631 
L 56.965 68.611394 
Q 56.965 70.277394 58.631 70.277394 
z
" style="fill:#ffffff;opacity:0.25;stroke:#cccccc;stroke-linejoin:miter;"/>
    </g>
    <g id="line2d_36">
     <path d="M 60.297 37.755252 
L 76.957 37.755252 
" style="fill:none;stroke:#1f77b4;stroke-linecap:square;stroke-width:1.5;"/>
    </g>
    <g id="line2d_37"/>
    <g id="text_20">
     <!-- foo -->
     <defs>
      <path d="M 51.90625 75.984375 
L 51.90625 68.5 
L 41.703125 68.5 
Q 36.859375 68.5 34.984375 66.515625 
Q 33.109375 64.546875 33.109375 59.515625 
L 33.109375 54.6875 
L 51.90625 54.6875 
L 51.90625 47.703125 
L 33.109375 47.703125 
L 33.109375 0 
L 24.125 0 
L 24.125 47.703125 
L 9.515625 47.703125 
L 9.515625 54.6875 
L 24.125 54.6875 
L 24.125 58.5 
Q 24.125 67.484375 28.25 71.734375 
Q 32.375 75.984375 41.109375 75.984375 
z
" id="DejaVuSansMono-66"/>
      <path d="M 30.078125 48.390625 
Q 23.25 48.390625 19.734375 43.0625 
Q 16.21875 37.75 16.21875 27.296875 
Q 16.21875 16.890625 19.734375 11.546875 
Q 23.25 6.203125 30.078125 6.203125 
Q 36.96875 6.203125 40.484375 11.546875 
Q 44 16.890625 44 27.296875 
Q 44 37.75 40.484375 43.0625 
Q 36.96875 48.390625 30.078125 48.390625 
z
M 30.078125 56 
Q 41.453125 56 47.484375 48.625 
Q 53.515625 41.265625 53.515625 27.296875 
Q 53.515625 13.28125 47.5 5.921875 
Q 41.5 -1.421875 30.078125 -1.421875 
Q 18.703125 -1.421875 12.6875 5.921875 
Q 6.6875 13.28125 6.6875 27.296875 
Q 6.6875 41.265625 12.6875 48.625 
Q 18.703125 56 30.078125 56 
z
" id="DejaVuSansMono-6f"/>
     </defs>
     <g transform="translate(83.621 40.670752)scale(0.0833 -0.0833)">
      <use xlink:href="#DejaVuSansMono-66"/>
      <use x="60.205078" xlink:href="#DejaVuSansMono-6f"/>
      <use x="120.410156" xlink:href="#DejaVuSansMono-6f"/>
     </g>
    </g>
    <g id="line2d_38">
     <path d="M 60.297 50.026383 
L 76.957 50.026383 
" style="fill:none;stroke:#ff7f0e;stroke-linecap:square;stroke-width:1.5;"/>
    </g>
    <g id="line2d_39"/>
    <g id="text_21">
     <!-- bar -->
     <defs>
      <path d="M 44.828125 27.296875 
Q 44.828125 37.75 41.5 43.0625 
Q 38.1875 48.390625 31.6875 48.390625 
Q 25.140625 48.390625 21.765625 43.046875 
Q 18.40625 37.703125 18.40625 27.296875 
Q 18.40625 16.9375 21.765625 11.5625 
Q 25.140625 6.203125 31.6875 6.203125 
Q 38.1875 6.203125 41.5 11.515625 
Q 44.828125 16.84375 44.828125 27.296875 
z
M 18.40625 47.703125 
Q 20.5625 51.703125 24.34375 53.84375 
Q 28.125 56 33.109375 56 
Q 42.96875 56 48.625 48.40625 
Q 54.296875 40.828125 54.296875 27.484375 
Q 54.296875 13.96875 48.609375 6.265625 
Q 42.921875 -1.421875 33.015625 -1.421875 
Q 28.125 -1.421875 24.390625 0.703125 
Q 20.65625 2.828125 18.40625 6.890625 
L 18.40625 0 
L 9.421875 0 
L 9.421875 75.984375 
L 18.40625 75.984375 
z
" id="DejaVuSansMono-62"/>
      <path d="M 34.28125 27.484375 
L 31.296875 27.484375 
Q 23.4375 27.484375 19.453125 24.71875 
Q 15.484375 21.96875 15.484375 16.5 
Q 15.484375 11.578125 18.453125 8.84375 
Q 21.4375 6.109375 26.703125 6.109375 
Q 34.125 6.109375 38.375 11.25 
Q 42.625 16.40625 42.671875 25.484375 
L 42.671875 27.484375 
z
M 51.703125 31.203125 
L 51.703125 0 
L 42.671875 0 
L 42.671875 8.109375 
Q 39.796875 3.21875 35.421875 0.890625 
Q 31.0625 -1.421875 24.8125 -1.421875 
Q 16.453125 -1.421875 11.46875 3.296875 
Q 6.5 8.015625 6.5 15.921875 
Q 6.5 25.046875 12.625 29.78125 
Q 18.75 34.515625 30.609375 34.515625 
L 42.671875 34.515625 
L 42.671875 35.9375 
Q 42.625 42.484375 39.34375 45.4375 
Q 36.078125 48.390625 28.90625 48.390625 
Q 24.3125 48.390625 19.625 47.0625 
Q 14.9375 45.75 10.5 43.21875 
L 10.5 52.203125 
Q 15.484375 54.109375 20.046875 55.046875 
Q 24.609375 56 28.90625 56 
Q 35.6875 56 40.5 54 
Q 45.3125 52 48.296875 48 
Q 50.140625 45.5625 50.921875 41.96875 
Q 51.703125 38.375 51.703125 31.203125 
z
" id="DejaVuSansMono-61"/>
      <path d="M 56.390625 43.40625 
Q 53.515625 45.65625 50.53125 46.671875 
Q 47.5625 47.703125 44 47.703125 
Q 35.59375 47.703125 31.140625 42.421875 
Q 26.703125 37.15625 26.703125 27.203125 
L 26.703125 0 
L 17.671875 0 
L 17.671875 54.6875 
L 26.703125 54.6875 
L 26.703125 44 
Q 28.953125 49.8125 33.609375 52.90625 
Q 38.28125 56 44.671875 56 
Q 48 56 50.875 55.171875 
Q 53.765625 54.34375 56.390625 52.59375 
z
" id="DejaVuSansMono-72"/>
     </defs>
     <g transform="translate(83.621 52.941883)scale(0.0833 -0.0833)">
      <use xlink:href="#DejaVuSansMono-62"/>
      <use x="60.205078" xlink:href="#DejaVuSansMono-61"/>
      <use x="120.410156" xlink:href="#DejaVuSansMono-72"/>
     </g>
    </g>
    <g id="line2d_40">
     <path d="M 60.297 62.297514 
L 76.957 62.297514 
" style="fill:none;stroke:#2ca02c;stroke-linecap:square;stroke-width:1.5;"/>
    </g>
    <g id="line2d_41"/>
    <g id="text_22">
     <!-- baz -->
     <defs>
      <path d="M 11.078125 54.78125 
L 50.78125 54.78125 
L 50.78125 46.578125 
L 19.390625 7.328125 
L 50.78125 7.328125 
L 50.78125 0 
L 9.90625 0 
L 9.90625 8.296875 
L 41.3125 47.609375 
L 11.078125 47.609375 
z
" id="DejaVuSansMono-7a"/>
     </defs>
     <g transform="translate(83.621 65.213014)scale(0.0833 -0.0833)">
      <use xlink:href="#DejaVuSansMono-62"/>
      <use x="60.205078" xlink:href="#DejaVuSansMono-61"/>
      <use x="120.410156" xlink:href="#DejaVuSansMono-7a"/>
     </g>
    </g>
   </g>
  </g>
  <g id="text_23">
   <!-- © Acme Designs 2015 -->
   <defs>
    <path d="M 50 72.515625 
Q 57.421875 72.515625 63.84375 69.828125 
Q 70.265625 67.140625 75.59375 61.8125 
Q 80.90625 56.5 83.546875 50.09375 
Q 86.1875 43.703125 86.1875 36.1875 
Q 86.1875 28.765625 83.546875 22.390625 
Q 80.90625 16.015625 75.59375 10.6875 
Q 70.265625 5.375 63.84375 2.6875 
Q 57.421875 0 50 0 
Q 42.578125 0 36.15625 2.6875 
Q 29.734375 5.375 24.421875 10.6875 
Q 19.09375 16.015625 16.453125 22.390625 
Q 13.8125 28.765625 13.8125 36.1875 
Q 13.8125 43.703125 16.453125 50.09375 
Q 19.09375 56.5 24.421875 61.8125 
Q 29.734375 67.140625 36.15625 69.828125 
Q 42.578125 72.515625 50 72.515625 
z
M 50 67.484375 
Q 43.609375 67.484375 38.078125 65.1875 
Q 32.5625 62.890625 27.984375 58.296875 
Q 23.390625 53.71875 21.046875 48.125 
Q 18.703125 42.53125 18.703125 36.1875 
Q 18.703125 29.890625 21.046875 24.34375 
Q 23.390625 18.796875 27.984375 14.203125 
Q 32.5625 9.625 38.078125 7.296875 
Q 43.609375 4.984375 50 4.984375 
Q 56.453125 4.984375 61.984375 7.296875 
Q 67.53125 9.625 72.125 14.203125 
Q 76.65625 18.75 78.921875 24.265625 
Q 81.203125 29.78125 81.203125 36.1875 
Q 81.203125 42.671875 78.90625 48.21875 
Q 76.609375 53.765625 72.125 58.296875 
Q 67.53125 62.890625 61.984375 65.1875 
Q 56.453125 67.484375 50 67.484375 
z
M 64.59375 55.515625 
L 64.59375 49.21875 
Q 61.375 50.828125 58.203125 51.609375 
Q 55.03125 52.390625 51.8125 52.390625 
Q 44.53125 52.390625 40.453125 48.109375 
Q 36.375 43.84375 36.375 36.1875 
Q 36.375 28.421875 40.546875 24.171875 
Q 44.734375 19.921875 52.296875 19.921875 
Q 55.421875 19.921875 58.390625 20.671875 
Q 61.375 21.4375 64.59375 23.09375 
L 64.59375 16.890625 
Q 61.328125 15.484375 57.984375 14.796875 
Q 54.640625 14.109375 51.21875 14.109375 
Q 40.671875 14.109375 34.546875 20.0625 
Q 28.421875 26.03125 28.421875 36.1875 
Q 28.421875 46.390625 34.546875 52.296875 
Q 40.671875 58.203125 51.21875 58.203125 
Q 54.78125 58.203125 58.09375 57.515625 
Q 61.421875 56.84375 64.59375 55.515625 
z
" id="DejaVuSans-a9"/>
    <path d="M 34.1875 63.1875 
L 20.796875 26.90625 
L 47.609375 26.90625 
z
M 28.609375 72.90625 
L 39.796875 72.90625 
L 67.578125 0 
L 57.328125 0 
L 50.6875 18.703125 
L 17.828125 18.703125 
L 11.1875 0 
L 0.78125 0 
z
" id="DejaVuSans-41"/>
    <path d="M 48.78125 52.59375 
L 48.78125 44.1875 
Q 44.96875 46.296875 41.140625 47.34375 
Q 37.3125 48.390625 33.40625 48.390625 
Q 24.65625 48.390625 19.8125 42.84375 
Q 14.984375 37.3125 14.984375 27.296875 
Q 14.984375 17.28125 19.8125 11.734375 
Q 24.65625 6.203125 33.40625 6.203125 
Q 37.3125 6.203125 41.140625 7.25 
Q 44.96875 8.296875 48.78125 10.40625 
L 48.78125 2.09375 
Q 45.015625 0.34375 40.984375 -0.53125 
Q 36.96875 -1.421875 32.421875 -1.421875 
Q 20.0625 -1.421875 12.78125 6.34375 
Q 5.515625 14.109375 5.515625 27.296875 
Q 5.515625 40.671875 12.859375 48.328125 
Q 20.21875 56 33.015625 56 
Q 37.15625 56 41.109375 55.140625 
Q 45.0625 54.296875 48.78125 52.59375 
z
" id="DejaVuSans-63"/>
    <path d="M 9.421875 54.6875 
L 18.40625 54.6875 
L 18.40625 0 
L 9.421875 0 
z
M 9.421875 75.984375 
L 18.40625 75.984375 
L 18.40625 64.59375 
L 9.421875 64.59375 
z
" id="DejaVuSans-69"/>
    <path d="M 45.40625 27.984375 
Q 45.40625 37.75 41.375 43.109375 
Q 37.359375 48.484375 30.078125 48.484375 
Q 22.859375 48.484375 18.828125 43.109375 
Q 14.796875 37.75 14.796875 27.984375 
Q 14.796875 18.265625 18.828125 12.890625 
Q 22.859375 7.515625 30.078125 7.515625 
Q 37.359375 7.515625 41.375 12.890625 
Q 45.40625 18.265625 45.40625 27.984375 
z
M 54.390625 6.78125 
Q 54.390625 -7.171875 48.1875 -13.984375 
Q 42 -20.796875 29.203125 -20.796875 
Q 24.46875 -20.796875 20.265625 -20.09375 
Q 16.0625 -19.390625 12.109375 -17.921875 
L 12.109375 -9.1875 
Q 16.0625 -11.328125 19.921875 -12.34375 
Q 23.78125 -13.375 27.78125 -13.375 
Q 36.625 -13.375 41.015625 -8.765625 
Q 45.40625 -4.15625 45.40625 5.171875 
L 45.40625 9.625 
Q 42.625 4.78125 38.28125 2.390625 
Q 33.9375 0 27.875 0 
Q 17.828125 0 11.671875 7.65625 
Q 5.515625 15.328125 5.515625 27.984375 
Q 5.515625 40.671875 11.671875 48.328125 
Q 17.828125 56 27.875 56 
Q 33.9375 56 38.28125 53.609375 
Q 42.625 51.21875 45.40625 46.390625 
L 45.40625 54.6875 
L 54.390625 54.6875 
z
" id="DejaVuSans-67"/>
   </defs>
   <g transform="translate(405.448437 285.632313)scale(0.1 -0.1)">
    <use xlink:href="#DejaVuSans-a9"/>
    <use x="100" xlink:href="#DejaVuSans-20"/>
    <use x="131.787109" xlink:href="#DejaVuSans-41"/>
    <use x="200.179688" xlink:href="#DejaVuSans-63"/>
    <use x="255.160156" xlink:href="#DejaVuSans-6d"/>
    <use x="352.572266" xlink:href="#DejaVuSans-65"/>
    <use x="414.095703" xlink:href="#DejaVuSans-20"/>
    <use x="445.882812" xlink:href="#DejaVuSans-44"/>
    <use x="522.884766" xlink:href="#DejaVuSans-65"/>
    <use x="584.408203" xlink:href="#DejaVuSans-73"/>
    <use x="636.507812" xlink:href="#DejaVuSans-69"/>
    <use x="664.291016" xlink:href="#DejaVuSans-67"/>
    <use x="727.767578" xlink:href="#DejaVuSans-6e"/>
    <use x="791.146484" xlink:href="#DejaVuSans-73"/>
    <use x="843.246094" xlink:href="#DejaVuSans-20"/>
    <use x="875.033203" xlink:href="#DejaVuSans-32"/>
    <use x="938.65625" xlink:href="#DejaVuSans-30"/>
    <use x="1002.279297" xlink:href="#DejaVuSans-31"/>
    <use x="1065.902344" xlink:href="#DejaVuSans-35"/>
   </g>
  </g>
 </g>
 <defs>
  <clipPath id="p06783aeb6c">
   <rect height="219.4" width="497.665898" x="52.8" y="26.8"/>
  </clipPath>
 </defs>
</svg>
